<?xml version="1.0" encoding="UTF-8" standalone="no"?>
<?xml-stylesheet href="styles.css" type="text/css"?>
<!DOCTYPE svg PUBLIC "-//W3C//DTD SVG 1.1//EN"
 "http://www.w3.org/Graphics/SVG/1.1/DTD/svg11.dtd">
<!-- Generated by graphviz version 2.40.1 (20161225.0304)
 -->
<!-- Title: MyXOR Pages: 1 -->
<svg width="310pt" height="261pt"
 viewBox="0.00 0.00 310.00 261.00" xmlns="http://www.w3.org/2000/svg" xmlns:xlink="http://www.w3.org/1999/xlink">
<g id="graph0" class="graph" transform="scale(1 1) rotate(0) translate(4 257)">
<title>MyXOR</title>
<polygon fill="#ffffff" stroke="transparent" points="-4,4 -4,-257 306,-257 306,4 -4,4"/>
<g id="clust1" class="cluster">
<title>cluster_MyXOR</title>
<polygon fill="#fff8dc" stroke="#000000" points="8,-8 8,-245 294,-245 294,-8 8,-8"/>
<text text-anchor="middle" x="151" y="-229.8" font-family="Times,serif" font-size="14.00" fill="#000000">MyXOR</text>
</g>
<!-- cluster_MyXOR_clock -->
<g id="node1" class="node">
<title>cluster_MyXOR_clock</title>
<polygon fill="#cccccc" stroke="#000000" points="70,-214 16,-214 16,-178 70,-178 70,-214"/>
<text text-anchor="middle" x="43" y="-192.3" font-family="Times,serif" font-size="14.00" fill="#000000">clock</text>
</g>
<!-- cluster_MyXOR_reset -->
<g id="node2" class="node">
<title>cluster_MyXOR_reset</title>
<polygon fill="#cccccc" stroke="#000000" points="70,-160 16,-160 16,-124 70,-124 70,-160"/>
<text text-anchor="middle" x="43" y="-138.3" font-family="Times,serif" font-size="14.00" fill="#000000">reset</text>
</g>
<!-- cluster_MyXOR_io_a -->
<g id="node3" class="node">
<title>cluster_MyXOR_io_a</title>
<polygon fill="#cccccc" stroke="#000000" points="70,-106 16,-106 16,-70 70,-70 70,-106"/>
<text text-anchor="middle" x="43" y="-84.3" font-family="Times,serif" font-size="14.00" fill="#000000">io_a</text>
</g>
<!-- op_xor_1 -->
<g id="node6" class="node">
<title>op_xor_1</title>
<polygon fill="#d8bfd8" stroke="transparent" points="114,-36 114,-86 188,-86 188,-36 114,-36"/>
<polygon fill="none" stroke="#000000" points="114,-61 114,-86 133,-86 133,-61 114,-61"/>
<text text-anchor="start" x="119" y="-69.8" font-family="Times,serif" font-size="14.00" fill="#000000">●</text>
<polygon fill="none" stroke="#000000" points="133,-36 133,-86 169,-86 169,-36 133,-36"/>
<text text-anchor="start" x="138" y="-57.3" font-family="Times,serif" font-size="14.00" fill="#000000"> xor </text>
<polygon fill="none" stroke="#000000" points="169,-36 169,-86 188,-86 188,-36 169,-36"/>
<text text-anchor="start" x="174" y="-57.3" font-family="Times,serif" font-size="14.00" fill="#000000">●</text>
<polygon fill="none" stroke="#000000" points="114,-36 114,-61 133,-61 133,-36 114,-36"/>
<text text-anchor="start" x="119" y="-44.8" font-family="Times,serif" font-size="14.00" fill="#000000">●</text>
</g>
<!-- cluster_MyXOR_io_a&#45;&gt;op_xor_1 -->
<g id="edge2" class="edge">
<title>cluster_MyXOR_io_a&#45;&gt;op_xor_1:in1</title>
<path fill="none" stroke="#000000" d="M70.0639,-80.0999C80.2292,-77.6438 92.1595,-75.338 103.8447,-74.4192"/>
<polygon fill="#000000" stroke="#000000" points="104.1529,-77.9096 114,-74 103.8641,-70.9155 104.1529,-77.9096"/>
</g>
<!-- cluster_MyXOR_io_b -->
<g id="node4" class="node">
<title>cluster_MyXOR_io_b</title>
<polygon fill="#cccccc" stroke="#000000" points="70,-52 16,-52 16,-16 70,-16 70,-52"/>
<text text-anchor="middle" x="43" y="-30.3" font-family="Times,serif" font-size="14.00" fill="#000000">io_b</text>
</g>
<!-- cluster_MyXOR_io_b&#45;&gt;op_xor_1 -->
<g id="edge3" class="edge">
<title>cluster_MyXOR_io_b&#45;&gt;op_xor_1:in2</title>
<path fill="none" stroke="#000000" d="M70.0639,-41.9001C80.2292,-44.3562 92.1595,-46.662 103.8447,-47.5808"/>
<polygon fill="#000000" stroke="#000000" points="103.8641,-51.0845 114,-48 104.1529,-44.0904 103.8641,-51.0845"/>
</g>
<!-- cluster_MyXOR_io_c -->
<g id="node5" class="node">
<title>cluster_MyXOR_io_c</title>
<polygon fill="#e0ffff" stroke="#000000" points="286,-79 232,-79 232,-43 286,-43 286,-79"/>
<text text-anchor="middle" x="259" y="-57.3" font-family="Times,serif" font-size="14.00" fill="#000000">io_c</text>
</g>
<!-- op_xor_1&#45;&gt;cluster_MyXOR_io_c -->
<g id="edge1" class="edge">
<title>op_xor_1:out&#45;&gt;cluster_MyXOR_io_c</title>
<path fill="none" stroke="#000000" d="M188,-61C198.9291,-61 210.8045,-61 221.6597,-61"/>
<polygon fill="#000000" stroke="#000000" points="221.6905,-64.5001 231.6905,-61 221.6904,-57.5001 221.6905,-64.5001"/>
</g>
</g>
</svg>
